<svg version="1.1" id="Layer_1" xmlns="http://www.w3.org/2000/svg" xmlns:xlink="http://www.w3.org/1999/xlink" x="0px" y="0px"
	 width="100%" viewBox="0 0 1500 1500" enable-background="new 0 0 1500 1500" xml:space="preserve">
<path fill="#FFFFFF" opacity="1.000000" stroke="none" 
	d="
M1.000000,533.000000 
	C1.000000,355.333374 1.000000,178.166733 1.000000,1.000071 
	C500.999878,1.000048 1000.999756,1.000048 1500.999756,1.000024 
	C1500.999756,500.999786 1500.999756,1000.999573 1500.999878,1500.999512 
	C1001.000305,1500.999756 501.000610,1500.999756 1.000450,1500.999878 
	C1.000000,1178.500000 1.000000,856.000000 1.000000,533.000000 
M1160.512085,1288.993652 
	C1163.055786,1287.325073 1165.642700,1285.718628 1168.136230,1283.978271 
	C1188.576660,1269.711426 1207.547974,1253.843140 1224.409790,1235.329102 
	C1237.506836,1220.948853 1249.459229,1205.822021 1259.987793,1189.516724 
	C1273.195312,1169.062744 1284.055054,1147.474731 1292.220703,1124.491943 
	C1299.522583,1103.940063 1305.569092,1083.094238 1307.944458,1061.372437 
	C1309.635132,1045.911499 1311.755005,1030.383789 1311.821045,1014.877808 
	C1312.192749,927.546448 1312.048950,840.212708 1311.913574,752.879944 
	C1311.901978,745.387695 1311.283936,737.781006 1309.893433,730.426819 
	C1304.849976,703.752808 1291.095581,682.439270 1269.056885,666.561707 
	C1250.170898,652.955505 1229.128906,646.880310 1205.768066,646.894775 
	C938.936096,647.059509 672.103943,646.999512 405.271820,646.999512 
	C403.314911,646.999512 401.358032,646.999512 399.000549,646.999512 
	C399.000549,644.833252 399.000519,643.045715 399.000519,641.258118 
	C399.000519,591.258362 398.852905,541.257751 399.135681,491.259583 
	C399.187012,482.183716 400.075073,472.898712 402.162231,464.085754 
	C410.630310,428.330292 431.521667,401.552399 463.710083,384.221161 
	C483.521423,373.554047 504.958008,368.888092 527.822266,370.832245 
	C543.355408,372.153015 558.095276,375.763306 571.948792,382.569275 
	C587.601929,390.259369 600.988220,400.911072 612.163696,414.519318 
	C630.340149,436.652649 639.064514,462.017212 640.060242,490.400696 
	C640.335266,498.243256 640.286438,506.329987 642.199463,513.843018 
	C651.695312,551.136719 674.432678,576.864990 710.885925,590.002930 
	C723.865173,594.680786 737.353516,595.461182 751.005920,595.025452 
	C763.632446,594.622498 775.538757,591.296570 787.065796,586.434326 
	C800.973938,580.567749 812.229919,570.717590 823.943604,561.564636 
	C835.973572,552.164429 848.047852,542.820923 860.076172,533.418579 
	C870.958984,524.911560 881.831726,516.391296 892.661804,507.817383 
	C905.929443,497.313690 919.080078,486.661255 932.406067,476.232666 
	C946.717896,465.032654 961.239624,454.100891 975.549011,442.897766 
	C988.872803,432.466400 1001.966248,421.740784 1015.292175,411.312286 
	C1029.604126,400.112274 1044.148438,389.209198 1058.446655,377.991943 
	C1076.361938,363.936920 1094.074707,349.624054 1111.977295,335.552582 
	C1128.318848,322.707977 1144.796875,310.036865 1161.215088,297.289612 
	C1173.143555,288.028320 1185.108032,278.812897 1196.989868,269.492157 
	C1206.844971,261.761200 1216.557617,253.848572 1226.416504,246.122528 
	C1236.376587,238.317322 1246.624268,230.868896 1256.408081,222.851944 
	C1267.901978,213.433762 1280.252563,205.021881 1289.577148,193.057541 
	C1303.566406,175.107895 1310.741699,154.669037 1311.760986,132.271500 
	C1312.193604,122.766571 1310.981201,112.911980 1308.806396,103.616364 
	C1303.035889,78.952217 1289.871582,58.717468 1269.228760,43.794727 
	C1240.687134,23.162043 1209.051636,19.040453 1175.707275,28.326881 
	C1163.176270,31.816784 1151.741821,38.391769 1141.517456,46.859535 
	C1130.882690,55.667080 1119.880615,64.033707 1108.975464,72.511177 
	C1099.244629,80.075729 1089.384521,87.474159 1079.658325,95.044540 
	C1068.365967,103.833969 1057.160034,112.734299 1045.911743,121.580322 
	C1034.286255,130.723038 1022.667786,139.874863 1011.022339,148.992111 
	C999.639893,157.903519 988.194153,166.734360 976.836487,175.677124 
	C963.671204,186.043182 950.618958,196.553055 937.429382,206.887894 
	C926.063721,215.793549 914.524658,224.477829 903.153076,233.376007 
	C891.492676,242.500183 879.988892,251.824478 868.330750,260.951660 
	C856.960876,269.853241 845.441895,278.564301 834.063110,287.454651 
	C822.299622,296.645538 810.626221,305.951538 798.630188,315.431000 
	C797.614929,313.989380 796.767944,312.834656 795.970215,311.646912 
	C782.453125,291.521851 767.688477,272.393158 750.065369,255.665649 
	C742.218140,248.217239 733.933594,241.217331 725.677429,234.214447 
	C708.608887,219.736862 689.743713,207.889984 669.965698,197.575592 
	C652.169556,188.294769 633.531616,180.867554 614.301514,175.069611 
	C591.446411,168.178711 568.017944,163.981964 544.264282,162.164520 
	C531.997803,161.225998 519.584412,161.609360 507.266418,162.109909 
	C495.163483,162.601715 482.952362,163.155365 471.050232,165.202454 
	C454.730927,168.009232 438.485962,171.624359 422.519653,176.020691 
	C397.486298,182.913635 374.066193,193.844681 351.729889,207.041687 
	C332.262421,218.543747 314.010529,231.812119 297.484894,247.204910 
	C280.869629,262.681183 265.660980,279.442505 252.293533,297.974945 
	C233.402557,324.165161 218.331360,352.289490 208.222351,382.822327 
	C202.582764,399.855957 198.570068,417.531189 195.194687,435.179413 
	C192.415527,449.710480 190.291382,464.621155 190.221634,479.374634 
	C189.782776,572.205444 189.986389,665.039429 190.042969,757.872314 
	C190.045456,761.953796 190.250107,766.127686 191.097702,770.101257 
	C196.649704,796.129028 209.258957,817.783325 230.610031,834.207886 
	C248.962341,848.325562 269.774841,855.842834 292.622955,855.861328 
	C560.788208,856.078186 828.953735,856.000488 1097.119141,856.000488 
	C1099.039429,856.000488 1100.959717,856.000488 1102.999512,856.000488 
	C1102.999512,908.986145 1103.076660,961.309387 1102.909424,1013.631836 
	C1102.886475,1020.797119 1102.434937,1028.140625 1100.829346,1035.088989 
	C1094.913574,1060.691528 1083.066650,1082.953857 1063.031860,1100.606934 
	C1053.219360,1109.252930 1042.682617,1116.459595 1030.729370,1121.744995 
	C1007.695190,1131.929688 983.650635,1134.923096 959.180054,1129.794678 
	C928.093445,1123.279785 902.834595,1107.071777 884.282166,1080.844849 
	C872.194275,1063.756592 864.764099,1045.033813 863.004822,1024.132690 
	C862.303711,1015.802551 861.555115,1007.473999 861.028503,999.132141 
	C860.147400,985.174500 855.297302,972.500854 848.764771,960.359314 
	C838.678101,941.612122 823.801147,927.599609 804.967529,918.109314 
	C785.820435,908.460938 765.456665,904.994995 743.964050,907.894165 
	C728.360413,909.998962 713.662964,914.349915 700.944763,923.672913 
	C684.984436,935.372498 669.449646,947.653992 653.772827,959.738403 
	C637.572876,972.225830 621.369690,984.710083 605.268188,997.323792 
	C593.221130,1006.761292 581.391479,1016.476196 569.357910,1025.931396 
	C558.004456,1034.852173 546.488892,1043.566284 535.085510,1052.423828 
	C523.285400,1061.589722 511.524139,1070.805664 499.765198,1080.024292 
	C489.912445,1087.748535 480.094604,1095.517090 470.248657,1103.250122 
	C460.153870,1111.178467 450.056702,1119.103760 439.936615,1126.999756 
	C430.333801,1134.492065 420.667053,1141.902710 411.088104,1149.425293 
	C399.446930,1158.567261 387.891602,1167.818481 376.255859,1176.967529 
	C364.511414,1186.201904 352.712524,1195.366943 340.940247,1204.565918 
	C329.672668,1213.370483 318.419067,1222.192993 307.140137,1230.982910 
	C295.742157,1239.865479 284.300934,1248.692627 272.914825,1257.590332 
	C261.261536,1266.696655 249.349503,1275.505005 238.114227,1285.103271 
	C228.160446,1293.606934 217.332275,1301.825317 209.789169,1312.264404 
	C192.020096,1336.855469 185.797974,1364.818726 192.037964,1394.922241 
	C197.568237,1421.601562 211.431961,1443.044189 233.554993,1459.031006 
	C248.369644,1469.736572 265.096771,1476.145142 283.109711,1477.704102 
	C293.962067,1478.643311 305.188690,1477.468140 316.029480,1475.815552 
	C332.562256,1473.295044 347.081757,1465.664185 360.190033,1455.331299 
	C371.799713,1446.179932 383.468842,1437.103882 395.108521,1427.990479 
	C404.960876,1420.276489 414.815857,1412.565796 424.656372,1404.836914 
	C434.756226,1396.904175 444.811432,1388.914429 454.937958,1381.016113 
	C467.611542,1371.131104 480.386078,1361.375122 493.028229,1351.450317 
	C506.208038,1341.103394 519.220886,1330.543579 532.417908,1320.218994 
	C548.397156,1307.717896 564.554993,1295.444702 580.521912,1282.927979 
	C596.777649,1270.184814 612.837402,1257.191650 629.089722,1244.444092 
	C645.314453,1231.718262 661.681702,1219.174438 677.966187,1206.524536 
	C686.406189,1199.968384 694.802368,1193.355957 703.246216,1186.747070 
	C716.417603,1207.971436 739.619324,1236.627686 759.721558,1254.507446 
	C774.973389,1268.072876 790.621887,1281.084839 808.167053,1291.332031 
	C824.912903,1301.112183 842.223572,1310.227539 860.097351,1317.692383 
	C879.626465,1325.848755 899.952209,1332.261963 921.156006,1335.032349 
	C936.479431,1337.034302 951.757446,1339.727661 967.146667,1340.770752 
	C979.154541,1341.584839 991.301025,1340.274536 1003.388245,1340.015747 
	C1020.557434,1339.647827 1037.311035,1336.606445 1054.093384,1333.151001 
	C1078.149658,1328.197998 1101.119141,1320.138184 1123.242554,1309.806396 
	C1135.888550,1303.900635 1147.760498,1296.337524 1160.512085,1288.993652 
z"/>
<path fill="#010000" opacity="1.000000" stroke="none" 
	d="
M1160.246582,1289.257080 
	C1147.760498,1296.337524 1135.888550,1303.900635 1123.242554,1309.806396 
	C1101.119141,1320.138184 1078.149658,1328.197998 1054.093384,1333.151001 
	C1037.311035,1336.606445 1020.557434,1339.647827 1003.388245,1340.015747 
	C991.301025,1340.274536 979.154541,1341.584839 967.146667,1340.770752 
	C951.757446,1339.727661 936.479431,1337.034302 921.156006,1335.032349 
	C899.952209,1332.261963 879.626465,1325.848755 860.097351,1317.692383 
	C842.223572,1310.227539 824.912903,1301.112183 808.167053,1291.332031 
	C790.621887,1281.084839 774.973389,1268.072876 759.721558,1254.507446 
	C739.619324,1236.627686 716.417603,1207.971436 703.246216,1186.747070 
	C694.802368,1193.355957 686.406189,1199.968384 677.966187,1206.524536 
	C661.681702,1219.174438 645.314453,1231.718262 629.089722,1244.444092 
	C612.837402,1257.191650 596.777649,1270.184814 580.521912,1282.927979 
	C564.554993,1295.444702 548.397156,1307.717896 532.417908,1320.218994 
	C519.220886,1330.543579 506.208038,1341.103394 493.028229,1351.450317 
	C480.386078,1361.375122 467.611542,1371.131104 454.937958,1381.016113 
	C444.811432,1388.914429 434.756226,1396.904175 424.656372,1404.836914 
	C414.815857,1412.565796 404.960876,1420.276489 395.108521,1427.990479 
	C383.468842,1437.103882 371.799713,1446.179932 360.190033,1455.331299 
	C347.081757,1465.664185 332.562256,1473.295044 316.029480,1475.815552 
	C305.188690,1477.468140 293.962067,1478.643311 283.109711,1477.704102 
	C265.096771,1476.145142 248.369644,1469.736572 233.554993,1459.031006 
	C211.431961,1443.044189 197.568237,1421.601562 192.037964,1394.922241 
	C185.797974,1364.818726 192.020096,1336.855469 209.789169,1312.264404 
	C217.332275,1301.825317 228.160446,1293.606934 238.114227,1285.103271 
	C249.349503,1275.505005 261.261536,1266.696655 272.914825,1257.590332 
	C284.300934,1248.692627 295.742157,1239.865479 307.140137,1230.982910 
	C318.419067,1222.192993 329.672668,1213.370483 340.940247,1204.565918 
	C352.712524,1195.366943 364.511414,1186.201904 376.255859,1176.967529 
	C387.891602,1167.818481 399.446930,1158.567261 411.088104,1149.425293 
	C420.667053,1141.902710 430.333801,1134.492065 439.936615,1126.999756 
	C450.056702,1119.103760 460.153870,1111.178467 470.248657,1103.250122 
	C480.094604,1095.517090 489.912445,1087.748535 499.765198,1080.024292 
	C511.524139,1070.805664 523.285400,1061.589722 535.085510,1052.423828 
	C546.488892,1043.566284 558.004456,1034.852173 569.357910,1025.931396 
	C581.391479,1016.476196 593.221130,1006.761292 605.268188,997.323792 
	C621.369690,984.710083 637.572876,972.225830 653.772827,959.738403 
	C669.449646,947.653992 684.984436,935.372498 700.944763,923.672913 
	C713.662964,914.349915 728.360413,909.998962 743.964050,907.894165 
	C765.456665,904.994995 785.820435,908.460938 804.967529,918.109314 
	C823.801147,927.599609 838.678101,941.612122 848.764771,960.359314 
	C855.297302,972.500854 860.147400,985.174500 861.028503,999.132141 
	C861.555115,1007.473999 862.303711,1015.802551 863.004822,1024.132690 
	C864.764099,1045.033813 872.194275,1063.756592 884.282166,1080.844849 
	C902.834595,1107.071777 928.093445,1123.279785 959.180054,1129.794678 
	C983.650635,1134.923096 1007.695190,1131.929688 1030.729370,1121.744995 
	C1042.682617,1116.459595 1053.219360,1109.252930 1063.031860,1100.606934 
	C1083.066650,1082.953857 1094.913574,1060.691528 1100.829346,1035.088989 
	C1102.434937,1028.140625 1102.886475,1020.797119 1102.909424,1013.631836 
	C1103.076660,961.309387 1102.999512,908.986145 1102.999512,856.000488 
	C1100.959717,856.000488 1099.039429,856.000488 1097.119141,856.000488 
	C828.953735,856.000488 560.788208,856.078186 292.622955,855.861328 
	C269.774841,855.842834 248.962341,848.325562 230.610031,834.207886 
	C209.258957,817.783325 196.649704,796.129028 191.097702,770.101257 
	C190.250107,766.127686 190.045456,761.953796 190.042969,757.872314 
	C189.986389,665.039429 189.782776,572.205444 190.221634,479.374634 
	C190.291382,464.621155 192.415527,449.710480 195.194687,435.179413 
	C198.570068,417.531189 202.582764,399.855957 208.222351,382.822327 
	C218.331360,352.289490 233.402557,324.165161 252.293533,297.974945 
	C265.660980,279.442505 280.869629,262.681183 297.484894,247.204910 
	C314.010529,231.812119 332.262421,218.543747 351.729889,207.041687 
	C374.066193,193.844681 397.486298,182.913635 422.519653,176.020691 
	C438.485962,171.624359 454.730927,168.009232 471.050232,165.202454 
	C482.952362,163.155365 495.163483,162.601715 507.266418,162.109909 
	C519.584412,161.609360 531.997803,161.225998 544.264282,162.164520 
	C568.017944,163.981964 591.446411,168.178711 614.301514,175.069611 
	C633.531616,180.867554 652.169556,188.294769 669.965698,197.575592 
	C689.743713,207.889984 708.608887,219.736862 725.677429,234.214447 
	C733.933594,241.217331 742.218140,248.217239 750.065369,255.665649 
	C767.688477,272.393158 782.453125,291.521851 795.970215,311.646912 
	C796.767944,312.834656 797.614929,313.989380 798.630188,315.431000 
	C810.626221,305.951538 822.299622,296.645538 834.063110,287.454651 
	C845.441895,278.564301 856.960876,269.853241 868.330750,260.951660 
	C879.988892,251.824478 891.492676,242.500183 903.153076,233.376007 
	C914.524658,224.477829 926.063721,215.793549 937.429382,206.887894 
	C950.618958,196.553055 963.671204,186.043182 976.836487,175.677124 
	C988.194153,166.734360 999.639893,157.903519 1011.022339,148.992111 
	C1022.667786,139.874863 1034.286255,130.723038 1045.911743,121.580322 
	C1057.160034,112.734299 1068.365967,103.833969 1079.658325,95.044540 
	C1089.384521,87.474159 1099.244629,80.075729 1108.975464,72.511177 
	C1119.880615,64.033707 1130.882690,55.667080 1141.517456,46.859535 
	C1151.741821,38.391769 1163.176270,31.816784 1175.707275,28.326881 
	C1209.051636,19.040453 1240.687134,23.162043 1269.228760,43.794727 
	C1289.871582,58.717468 1303.035889,78.952217 1308.806396,103.616364 
	C1310.981201,112.911980 1312.193604,122.766571 1311.760986,132.271500 
	C1310.741699,154.669037 1303.566406,175.107895 1289.577148,193.057541 
	C1280.252563,205.021881 1267.901978,213.433762 1256.408081,222.851944 
	C1246.624268,230.868896 1236.376587,238.317322 1226.416504,246.122528 
	C1216.557617,253.848572 1206.844971,261.761200 1196.989868,269.492157 
	C1185.108032,278.812897 1173.143555,288.028320 1161.215088,297.289612 
	C1144.796875,310.036865 1128.318848,322.707977 1111.977295,335.552582 
	C1094.074707,349.624054 1076.361938,363.936920 1058.446655,377.991943 
	C1044.148438,389.209198 1029.604126,400.112274 1015.292175,411.312286 
	C1001.966248,421.740784 988.872803,432.466400 975.549011,442.897766 
	C961.239624,454.100891 946.717896,465.032654 932.406067,476.232666 
	C919.080078,486.661255 905.929443,497.313690 892.661804,507.817383 
	C881.831726,516.391296 870.958984,524.911560 860.076172,533.418579 
	C848.047852,542.820923 835.973572,552.164429 823.943604,561.564636 
	C812.229919,570.717590 800.973938,580.567749 787.065796,586.434326 
	C775.538757,591.296570 763.632446,594.622498 751.005920,595.025452 
	C737.353516,595.461182 723.865173,594.680786 710.885925,590.002930 
	C674.432678,576.864990 651.695312,551.136719 642.199463,513.843018 
	C640.286438,506.329987 640.335266,498.243256 640.060242,490.400696 
	C639.064514,462.017212 630.340149,436.652649 612.163696,414.519318 
	C600.988220,400.911072 587.601929,390.259369 571.948792,382.569275 
	C558.095276,375.763306 543.355408,372.153015 527.822266,370.832245 
	C504.958008,368.888092 483.521423,373.554047 463.710083,384.221161 
	C431.521667,401.552399 410.630310,428.330292 402.162231,464.085754 
	C400.075073,472.898712 399.187012,482.183716 399.135681,491.259583 
	C398.852905,541.257751 399.000519,591.258362 399.000519,641.258118 
	C399.000519,643.045715 399.000549,644.833252 399.000549,646.999512 
	C401.358032,646.999512 403.314911,646.999512 405.271820,646.999512 
	C672.103943,646.999512 938.936096,647.059509 1205.768066,646.894775 
	C1229.128906,646.880310 1250.170898,652.955505 1269.056885,666.561707 
	C1291.095581,682.439270 1304.849976,703.752808 1309.893433,730.426819 
	C1311.283936,737.781006 1311.901978,745.387695 1311.913574,752.879944 
	C1312.048950,840.212708 1312.192749,927.546448 1311.821045,1014.877808 
	C1311.755005,1030.383789 1309.635132,1045.911499 1307.944458,1061.372437 
	C1305.569092,1083.094238 1299.522583,1103.940063 1292.220703,1124.491943 
	C1284.055054,1147.474731 1273.195312,1169.062744 1259.987793,1189.516724 
	C1249.459229,1205.822021 1237.506836,1220.948853 1224.409790,1235.329102 
	C1207.547974,1253.843140 1188.576660,1269.711426 1168.136230,1283.978271 
	C1165.642700,1285.718628 1163.055786,1287.325073 1160.246582,1289.257080 
M982.500000,667.855530 
	C781.082214,667.855530 579.664490,667.855530 378.129028,667.855530 
	C378.006775,666.039978 377.862427,664.895020 377.862213,663.750122 
	C377.851501,605.086853 377.682922,546.422546 378.019470,487.761169 
	C378.076080,477.892120 379.498840,467.848694 381.690186,458.203918 
	C394.904755,400.042419 445.736115,356.480072 500.548615,350.919067 
	C520.841187,348.860260 540.894287,349.280731 560.547913,355.302124 
	C618.880554,373.173767 660.992798,426.703522 660.977783,491.239502 
	C660.974731,504.220398 663.946167,516.446106 669.812012,527.948608 
	C683.117615,554.040161 704.830811,569.464111 733.285217,573.629883 
	C756.466125,577.023438 777.968201,570.504272 796.730957,555.762085 
	C860.384949,505.748199 924.128174,455.847717 987.852600,405.923401 
	C1077.669312,335.557343 1167.527710,265.244415 1257.307373,194.831055 
	C1285.047974,173.074249 1295.427124,144.108475 1288.395508,110.159149 
	C1280.084595,70.033028 1245.623047,44.924202 1206.305420,44.913147 
	C1187.524292,44.907867 1170.665039,51.050594 1155.897827,62.616310 
	C1041.809326,151.971130 927.754883,241.369522 813.686340,330.749847 
	C806.684570,336.236267 799.652405,341.684021 792.470520,347.277374 
	C791.713379,346.042969 791.257263,345.356628 790.857239,344.639069 
	C777.415039,320.521851 761.596191,298.097229 742.371643,278.247986 
	C686.866333,220.938965 619.195923,189.175079 539.679016,183.308212 
	C524.185242,182.165085 508.392487,182.688538 492.921417,184.256653 
	C475.400116,186.032578 457.646210,188.287125 440.753601,193.036942 
	C339.786835,221.426407 269.759216,284.887238 231.246979,382.303467 
	C223.437790,402.056732 218.478745,423.184113 214.470062,444.111725 
	C211.442535,459.917114 211.194580,476.411316 211.139984,492.603760 
	C210.846756,579.597778 210.944839,666.593445 211.118500,753.588074 
	C211.131149,759.923462 212.263443,766.393555 213.810959,772.566406 
	C222.675400,807.925537 256.638824,834.613953 295.690308,834.562866 
	C569.507385,834.204895 843.325256,834.372437 1117.142822,834.389465 
	C1119.382935,834.389587 1121.622925,834.631287 1124.148071,834.776672 
	C1124.148071,837.158508 1124.148193,838.976074 1124.148193,840.793640 
	C1124.148193,870.458618 1124.296875,900.124512 1124.107544,929.788269 
	C1123.909058,960.890564 1123.392944,991.990845 1123.002197,1023.091858 
	C1122.803589,1038.896973 1118.834473,1053.910767 1112.294067,1068.113647 
	C1089.375000,1117.884155 1050.015625,1145.850464 996.121704,1152.680664 
	C978.975891,1154.853638 961.552551,1152.896118 944.480164,1148.165405 
	C888.054810,1132.529907 843.000854,1080.459351 840.974426,1017.278687 
	C840.773315,1011.008484 840.788391,1004.661438 839.790283,998.497925 
	C833.498535,959.645386 801.582886,929.348022 759.223572,928.104065 
	C740.091064,927.542236 722.525269,933.159851 707.302307,944.992065 
	C675.212646,969.934143 643.239685,995.026428 611.232178,1020.074158 
	C488.315002,1116.263916 365.281586,1212.305664 242.589813,1308.781982 
	C217.496048,1328.514038 207.503326,1355.416260 212.155136,1387.078003 
	C217.451248,1423.125366 248.903290,1455.835205 291.861938,1457.079346 
	C312.499573,1457.676880 330.722900,1451.220703 346.883423,1438.556763 
	C376.645721,1415.233521 406.412659,1391.916138 436.187805,1368.609375 
	C514.231873,1307.519531 592.279785,1246.434570 670.330444,1185.353149 
	C683.155518,1175.316406 696.001587,1165.306274 709.104980,1155.075317 
	C710.168213,1156.802124 711.065613,1158.152588 711.857971,1159.562134 
	C727.631958,1187.620239 746.841736,1212.994263 770.297241,1235.137329 
	C811.867859,1274.381836 860.373169,1300.691284 916.293884,1312.639648 
	C933.062378,1316.222534 950.239868,1318.378174 967.345215,1319.734619 
	C979.842224,1320.725586 992.598755,1320.056030 1005.111511,1318.825195 
	C1020.526062,1317.309082 1036.060791,1315.517944 1051.105103,1311.980713 
	C1138.380859,1291.460571 1204.414917,1241.722900 1249.976074,1164.832153 
	C1267.702026,1134.917114 1279.986572,1102.736206 1284.997070,1068.137939 
	C1287.388306,1051.627075 1289.467529,1035.032104 1290.676758,1018.401672 
	C1291.605103,1005.634399 1290.990356,992.751953 1290.992676,979.920715 
	C1291.005981,903.425110 1291.062622,826.929382 1290.887817,750.434143 
	C1290.872559,743.766968 1289.981323,736.925354 1288.320312,730.467407 
	C1278.894775,693.819031 1247.308716,668.406738 1209.482178,668.135620 
	C1134.157959,667.595703 1058.827759,667.899902 982.500000,667.855530 
z"/>
<path fill="#E90802" opacity="1.000000" stroke="none" 
	d="
M983.000000,667.855469 
	C1058.827759,667.899902 1134.157959,667.595703 1209.482178,668.135620 
	C1247.308716,668.406738 1278.894775,693.819031 1288.320312,730.467407 
	C1289.981323,736.925354 1290.872559,743.766968 1290.887817,750.434143 
	C1291.062622,826.929382 1291.005981,903.425110 1290.992676,979.920715 
	C1290.990356,992.751953 1291.605103,1005.634399 1290.676758,1018.401672 
	C1289.467529,1035.032104 1287.388306,1051.627075 1284.997070,1068.137939 
	C1279.986572,1102.736206 1267.702026,1134.917114 1249.976074,1164.832153 
	C1204.414917,1241.722900 1138.380859,1291.460571 1051.105103,1311.980713 
	C1036.060791,1315.517944 1020.526062,1317.309082 1005.111511,1318.825195 
	C992.598755,1320.056030 979.842224,1320.725586 967.345215,1319.734619 
	C950.239868,1318.378174 933.062378,1316.222534 916.293884,1312.639648 
	C860.373169,1300.691284 811.867859,1274.381836 770.297241,1235.137329 
	C746.841736,1212.994263 727.631958,1187.620239 711.857971,1159.562134 
	C711.065613,1158.152588 710.168213,1156.802124 709.104980,1155.075317 
	C696.001587,1165.306274 683.155518,1175.316406 670.330444,1185.353149 
	C592.279785,1246.434570 514.231873,1307.519531 436.187805,1368.609375 
	C406.412659,1391.916138 376.645721,1415.233521 346.883423,1438.556763 
	C330.722900,1451.220703 312.499573,1457.676880 291.861938,1457.079346 
	C248.903290,1455.835205 217.451248,1423.125366 212.155136,1387.078003 
	C207.503326,1355.416260 217.496048,1328.514038 242.589813,1308.781982 
	C365.281586,1212.305664 488.315002,1116.263916 611.232178,1020.074158 
	C643.239685,995.026428 675.212646,969.934143 707.302307,944.992065 
	C722.525269,933.159851 740.091064,927.542236 759.223572,928.104065 
	C801.582886,929.348022 833.498535,959.645386 839.790283,998.497925 
	C840.788391,1004.661438 840.773315,1011.008484 840.974426,1017.278687 
	C843.000854,1080.459351 888.054810,1132.529907 944.480164,1148.165405 
	C961.552551,1152.896118 978.975891,1154.853638 996.121704,1152.680664 
	C1050.015625,1145.850464 1089.375000,1117.884155 1112.294067,1068.113647 
	C1118.834473,1053.910767 1122.803589,1038.896973 1123.002197,1023.091858 
	C1123.392944,991.990845 1123.909058,960.890564 1124.107544,929.788269 
	C1124.296875,900.124512 1124.148193,870.458618 1124.148193,840.793640 
	C1124.148193,838.976074 1124.148071,837.158508 1124.148071,834.776672 
	C1121.622925,834.631287 1119.382935,834.389587 1117.142822,834.389465 
	C843.325256,834.372437 569.507385,834.204895 295.690308,834.562866 
	C256.638824,834.613953 222.675400,807.925537 213.810959,772.566406 
	C212.263443,766.393555 211.131149,759.923462 211.118500,753.588074 
	C210.944839,666.593445 210.846756,579.597778 211.139984,492.603760 
	C211.194580,476.411316 211.442535,459.917114 214.470062,444.111725 
	C218.478745,423.184113 223.437790,402.056732 231.246979,382.303467 
	C269.759216,284.887238 339.786835,221.426407 440.753601,193.036942 
	C457.646210,188.287125 475.400116,186.032578 492.921417,184.256653 
	C508.392487,182.688538 524.185242,182.165085 539.679016,183.308212 
	C619.195923,189.175079 686.866333,220.938965 742.371643,278.247986 
	C761.596191,298.097229 777.415039,320.521851 790.857239,344.639069 
	C791.257263,345.356628 791.713379,346.042969 792.470520,347.277374 
	C799.652405,341.684021 806.684570,336.236267 813.686340,330.749847 
	C927.754883,241.369522 1041.809326,151.971130 1155.897827,62.616310 
	C1170.665039,51.050594 1187.524292,44.907867 1206.305420,44.913147 
	C1245.623047,44.924202 1280.084595,70.033028 1288.395508,110.159149 
	C1295.427124,144.108475 1285.047974,173.074249 1257.307373,194.831055 
	C1167.527710,265.244415 1077.669312,335.557343 987.852600,405.923401 
	C924.128174,455.847717 860.384949,505.748199 796.730957,555.762085 
	C777.968201,570.504272 756.466125,577.023438 733.285217,573.629883 
	C704.830811,569.464111 683.117615,554.040161 669.812012,527.948608 
	C663.946167,516.446106 660.974731,504.220398 660.977783,491.239502 
	C660.992798,426.703522 618.880554,373.173767 560.547913,355.302124 
	C540.894287,349.280731 520.841187,348.860260 500.548615,350.919067 
	C445.736115,356.480072 394.904755,400.042419 381.690186,458.203918 
	C379.498840,467.848694 378.076080,477.892120 378.019470,487.761169 
	C377.682922,546.422546 377.851501,605.086853 377.862213,663.750122 
	C377.862427,664.895020 378.006775,666.039978 378.129028,667.855530 
	C579.664490,667.855530 781.082214,667.855530 983.000000,667.855469 
z"/>
</svg>