<svg version="1.1" id="Layer_1" xmlns="http://www.w3.org/2000/svg" xmlns:xlink="http://www.w3.org/1999/xlink" x="0px" y="0px"
	 width="100%" viewBox="0 0 1500 1500" enable-background="new 0 0 1500 1500" xml:space="preserve">
<path fill="#FFFFFF" opacity="1.000000" stroke="none" 
	d="
M1501.000000,532.000000 
	C1501.000000,855.306458 1501.000000,1178.112915 1501.000000,1500.959717 
	C1001.068420,1500.959717 501.136841,1500.959717 1.102626,1500.959717 
	C1.102626,1001.109985 1.102626,501.220001 1.102626,1.164988 
	C500.999969,1.164988 1001.000000,1.164988 1501.000000,1.164988 
	C1501.000000,177.863510 1501.000000,354.681763 1501.000000,532.000000 
M474.500000,39.999615 
	C444.667389,39.999615 414.831757,39.759811 385.003906,40.136513 
	C375.255219,40.259628 365.418488,41.381420 355.810516,43.100227 
	C331.941132,47.370316 311.425354,58.802940 294.288483,75.582458 
	C286.003387,83.694756 278.980988,93.357468 272.626526,103.124680 
	C260.477966,121.797684 254.124710,142.744019 254.115402,164.955093 
	C253.954575,548.604553 253.991364,932.254028 254.041565,1315.903564 
	C254.042999,1326.819702 254.509399,1337.743530 255.038986,1348.650146 
	C255.704712,1362.360474 259.658173,1375.337769 265.367462,1387.667725 
	C274.439636,1407.260132 287.277527,1423.930542 304.577576,1437.201782 
	C325.012451,1452.877930 348.115784,1461.562622 373.494843,1463.822632 
	C386.730896,1465.001099 400.077606,1464.130615 413.201172,1461.048706 
	C437.044891,1455.449219 457.734436,1444.201660 475.293091,1427.183838 
	C484.232239,1418.520020 491.638397,1408.715820 497.778107,1397.828003 
	C507.210541,1381.100952 513.802124,1363.254517 513.816040,1344.167358 
	C514.068848,998.182983 514.000305,652.198425 514.000305,306.213898 
	C514.000305,304.262207 514.000305,302.310547 514.000305,300.000366 
	C516.204834,300.000366 518.001831,300.000366 519.798889,300.000366 
	C581.129456,300.000366 642.460327,299.908386 703.790405,300.089966 
	C714.127380,300.120544 724.463623,301.293335 734.795471,302.006256 
	C752.594238,303.234436 769.245972,308.823914 785.010925,316.663055 
	C807.232971,327.712952 825.753235,343.446381 840.840881,363.272308 
	C858.906799,387.011749 869.106201,413.892273 871.792969,443.326874 
	C873.676331,463.959473 871.646057,484.574524 864.956299,504.399902 
	C858.625732,523.160889 849.603882,540.470642 836.809814,555.783997 
	C823.982117,571.137695 809.221008,584.111206 791.658997,593.702148 
	C768.223694,606.500610 743.311462,613.610352 716.346558,613.125305 
	C708.527588,612.984558 700.555725,613.697693 692.874817,615.171021 
	C678.168884,617.991882 663.769104,622.380981 651.136475,630.600708 
	C641.108765,637.125549 631.077332,644.068115 622.546570,652.366211 
	C611.167908,663.434509 602.552124,676.821045 596.064331,691.506104 
	C588.674194,708.233582 585.734375,725.898010 585.215088,743.900085 
	C584.968933,752.435852 586.476624,761.139343 588.119934,769.585815 
	C590.734192,783.023315 594.720947,796.166992 602.348022,807.707336 
	C609.204163,818.081055 616.566040,828.138733 624.057617,838.069702 
	C633.740906,850.906006 643.729492,863.513428 653.670044,876.153870 
	C664.027771,889.324707 674.545410,902.369995 684.879822,915.558960 
	C693.785156,926.924194 702.466980,938.464417 711.365479,949.835022 
	C720.490479,961.495117 729.819092,972.995911 738.946655,984.653992 
	C747.847534,996.022583 756.579468,1007.523254 765.435730,1018.926941 
	C774.599670,1030.726685 783.815002,1042.486572 793.024414,1054.250977 
	C801.841675,1065.514648 810.697205,1076.748413 819.504639,1088.019775 
	C828.699890,1099.787720 837.833496,1111.603638 847.039001,1123.363403 
	C855.859985,1134.631836 864.744019,1145.850708 873.590454,1157.099121 
	C882.732605,1168.723511 891.877625,1180.345459 900.994019,1191.989990 
	C909.905457,1203.372559 918.775391,1214.787598 927.676575,1226.178101 
	C936.778931,1237.826172 945.896179,1249.462402 955.008789,1261.102295 
	C963.923706,1272.489746 972.850159,1283.868042 981.754822,1295.263428 
	C990.853394,1306.906860 999.915588,1318.578613 1009.023621,1330.214600 
	C1016.739502,1340.071899 1024.503906,1349.891113 1032.236084,1359.735718 
	C1040.165039,1369.830811 1048.064209,1379.949463 1056.007324,1390.033325 
	C1064.156982,1400.379395 1071.943115,1411.047119 1080.610107,1420.941772 
	C1093.090210,1435.189453 1108.265991,1445.948975 1125.787720,1453.402710 
	C1140.215576,1459.540405 1155.243408,1463.257324 1170.816528,1463.816895 
	C1180.110596,1464.150757 1189.491089,1462.881592 1198.794800,1461.952393 
	C1212.241943,1460.609253 1224.834229,1456.057129 1236.707031,1449.920044 
	C1252.771606,1441.616333 1266.640503,1430.483154 1278.247192,1416.391357 
	C1297.402954,1393.134155 1306.791748,1366.304688 1307.790405,1336.574829 
	C1308.121582,1326.711670 1306.671509,1316.641846 1304.865356,1306.883057 
	C1300.604858,1283.863525 1289.468872,1264.107544 1274.727417,1246.127197 
	C1265.156616,1234.453857 1256.133667,1222.331909 1246.826660,1210.441284 
	C1238.108398,1199.302856 1229.352783,1188.193237 1220.588257,1177.091187 
	C1211.416382,1165.472900 1202.163818,1153.917969 1193.038940,1142.262939 
	C1184.135742,1130.890991 1175.365234,1119.415161 1166.507080,1108.007812 
	C1157.346558,1096.211060 1148.171265,1084.425537 1138.964722,1072.664795 
	C1130.144531,1061.397583 1121.274780,1050.169556 1112.429077,1038.922363 
	C1103.285889,1027.296875 1094.126953,1015.683838 1085.009521,1004.038330 
	C1076.099121,992.656982 1067.243652,981.232544 1058.343262,969.843262 
	C1049.239868,958.194275 1040.109253,946.566650 1030.994873,934.926270 
	C1023.281982,925.075989 1015.589722,915.209595 1007.861877,905.371155 
	C999.928040,895.270447 991.941833,885.210754 984.015930,875.103821 
	C976.199585,865.136414 968.431274,855.131470 960.639709,845.144714 
	C952.120361,834.225159 943.598572,823.307617 935.010559,812.303162 
	C942.303406,807.370911 949.524414,803.040283 956.124146,797.910461 
	C970.520142,786.720825 985.217285,775.799744 998.649597,763.520020 
	C1014.706360,748.841187 1029.549316,732.901733 1043.049072,715.679016 
	C1059.835693,694.262878 1074.590698,671.648682 1087.095093,647.520874 
	C1098.570068,625.379395 1107.789429,602.305908 1114.935547,578.444519 
	C1120.813354,558.818420 1125.230957,538.870483 1128.170288,518.526733 
	C1131.231689,497.337494 1132.683716,476.101440 1132.941040,454.749786 
	C1133.004395,449.502258 1132.358398,444.244202 1131.994873,438.993988 
	C1131.348145,429.657410 1131.174316,420.252930 1129.890869,411.003357 
	C1127.621460,394.649841 1125.269531,378.264587 1121.870972,362.120178 
	C1115.533325,332.013184 1104.966187,303.231598 1091.737305,275.515442 
	C1081.671265,254.425690 1070.132690,234.039413 1055.814697,215.515594 
	C1043.446289,199.514145 1030.610229,183.805206 1017.017639,168.842072 
	C1007.158752,157.988983 996.030640,148.212494 984.902832,138.611557 
	C975.210999,130.249573 964.928345,122.527863 954.552673,115.012077 
	C931.135681,98.049774 906.067749,83.820129 879.200195,73.193764 
	C860.904541,65.957695 842.218079,59.428959 823.250183,54.257004 
	C806.323914,49.641758 788.872070,46.593204 771.467041,44.198231 
	C754.764709,41.899933 737.829834,40.262871 720.988159,40.180470 
	C639.160461,39.780106 557.329651,39.999615 474.500000,39.999615 
z"/>
<path fill="#010000" opacity="1.000000" stroke="none" 
	d="
M475.000000,39.999615 
	C557.329651,39.999615 639.160461,39.780106 720.988159,40.180470 
	C737.829834,40.262871 754.764709,41.899933 771.467041,44.198231 
	C788.872070,46.593204 806.323914,49.641758 823.250183,54.257004 
	C842.218079,59.428959 860.904541,65.957695 879.200195,73.193764 
	C906.067749,83.820129 931.135681,98.049774 954.552673,115.012077 
	C964.928345,122.527863 975.210999,130.249573 984.902832,138.611557 
	C996.030640,148.212494 1007.158752,157.988983 1017.017639,168.842072 
	C1030.610229,183.805206 1043.446289,199.514145 1055.814697,215.515594 
	C1070.132690,234.039413 1081.671265,254.425690 1091.737305,275.515442 
	C1104.966187,303.231598 1115.533325,332.013184 1121.870972,362.120178 
	C1125.269531,378.264587 1127.621460,394.649841 1129.890869,411.003357 
	C1131.174316,420.252930 1131.348145,429.657410 1131.994873,438.993988 
	C1132.358398,444.244202 1133.004395,449.502258 1132.941040,454.749786 
	C1132.683716,476.101440 1131.231689,497.337494 1128.170288,518.526733 
	C1125.230957,538.870483 1120.813354,558.818420 1114.935547,578.444519 
	C1107.789429,602.305908 1098.570068,625.379395 1087.095093,647.520874 
	C1074.590698,671.648682 1059.835693,694.262878 1043.049072,715.679016 
	C1029.549316,732.901733 1014.706360,748.841187 998.649597,763.520020 
	C985.217285,775.799744 970.520142,786.720825 956.124146,797.910461 
	C949.524414,803.040283 942.303406,807.370911 935.010559,812.303162 
	C943.598572,823.307617 952.120361,834.225159 960.639709,845.144714 
	C968.431274,855.131470 976.199585,865.136414 984.015930,875.103821 
	C991.941833,885.210754 999.928040,895.270447 1007.861877,905.371155 
	C1015.589722,915.209595 1023.281982,925.075989 1030.994873,934.926270 
	C1040.109253,946.566650 1049.239868,958.194275 1058.343262,969.843262 
	C1067.243652,981.232544 1076.099121,992.656982 1085.009521,1004.038330 
	C1094.126953,1015.683838 1103.285889,1027.296875 1112.429077,1038.922363 
	C1121.274780,1050.169556 1130.144531,1061.397583 1138.964722,1072.664795 
	C1148.171265,1084.425537 1157.346558,1096.211060 1166.507080,1108.007812 
	C1175.365234,1119.415161 1184.135742,1130.890991 1193.038940,1142.262939 
	C1202.163818,1153.917969 1211.416382,1165.472900 1220.588257,1177.091187 
	C1229.352783,1188.193237 1238.108398,1199.302856 1246.826660,1210.441284 
	C1256.133667,1222.331909 1265.156616,1234.453857 1274.727417,1246.127197 
	C1289.468872,1264.107544 1300.604858,1283.863525 1304.865356,1306.883057 
	C1306.671509,1316.641846 1308.121582,1326.711670 1307.790405,1336.574829 
	C1306.791748,1366.304688 1297.402954,1393.134155 1278.247192,1416.391357 
	C1266.640503,1430.483154 1252.771606,1441.616333 1236.707031,1449.920044 
	C1224.834229,1456.057129 1212.241943,1460.609253 1198.794800,1461.952393 
	C1189.491089,1462.881592 1180.110596,1464.150757 1170.816528,1463.816895 
	C1155.243408,1463.257324 1140.215576,1459.540405 1125.787720,1453.402710 
	C1108.265991,1445.948975 1093.090210,1435.189453 1080.610107,1420.941772 
	C1071.943115,1411.047119 1064.156982,1400.379395 1056.007324,1390.033325 
	C1048.064209,1379.949463 1040.165039,1369.830811 1032.236084,1359.735718 
	C1024.503906,1349.891113 1016.739502,1340.071899 1009.023621,1330.214600 
	C999.915588,1318.578613 990.853394,1306.906860 981.754822,1295.263428 
	C972.850159,1283.868042 963.923706,1272.489746 955.008789,1261.102295 
	C945.896179,1249.462402 936.778931,1237.826172 927.676575,1226.178101 
	C918.775391,1214.787598 909.905457,1203.372559 900.994019,1191.989990 
	C891.877625,1180.345459 882.732605,1168.723511 873.590454,1157.099121 
	C864.744019,1145.850708 855.859985,1134.631836 847.039001,1123.363403 
	C837.833496,1111.603638 828.699890,1099.787720 819.504639,1088.019775 
	C810.697205,1076.748413 801.841675,1065.514648 793.024414,1054.250977 
	C783.815002,1042.486572 774.599670,1030.726685 765.435730,1018.926941 
	C756.579468,1007.523254 747.847534,996.022583 738.946655,984.653992 
	C729.819092,972.995911 720.490479,961.495117 711.365479,949.835022 
	C702.466980,938.464417 693.785156,926.924194 684.879822,915.558960 
	C674.545410,902.369995 664.027771,889.324707 653.670044,876.153870 
	C643.729492,863.513428 633.740906,850.906006 624.057617,838.069702 
	C616.566040,828.138733 609.204163,818.081055 602.348022,807.707336 
	C594.720947,796.166992 590.734192,783.023315 588.119934,769.585815 
	C586.476624,761.139343 584.968933,752.435852 585.215088,743.900085 
	C585.734375,725.898010 588.674194,708.233582 596.064331,691.506104 
	C602.552124,676.821045 611.167908,663.434509 622.546570,652.366211 
	C631.077332,644.068115 641.108765,637.125549 651.136475,630.600708 
	C663.769104,622.380981 678.168884,617.991882 692.874817,615.171021 
	C700.555725,613.697693 708.527588,612.984558 716.346558,613.125305 
	C743.311462,613.610352 768.223694,606.500610 791.658997,593.702148 
	C809.221008,584.111206 823.982117,571.137695 836.809814,555.783997 
	C849.603882,540.470642 858.625732,523.160889 864.956299,504.399902 
	C871.646057,484.574524 873.676331,463.959473 871.792969,443.326874 
	C869.106201,413.892273 858.906799,387.011749 840.840881,363.272308 
	C825.753235,343.446381 807.232971,327.712952 785.010925,316.663055 
	C769.245972,308.823914 752.594238,303.234436 734.795471,302.006256 
	C724.463623,301.293335 714.127380,300.120544 703.790405,300.089966 
	C642.460327,299.908386 581.129456,300.000366 519.798889,300.000366 
	C518.001831,300.000366 516.204834,300.000366 514.000305,300.000366 
	C514.000305,302.310547 514.000305,304.262207 514.000305,306.213898 
	C514.000305,652.198425 514.068848,998.182983 513.816040,1344.167358 
	C513.802124,1363.254517 507.210541,1381.100952 497.778107,1397.828003 
	C491.638397,1408.715820 484.232239,1418.520020 475.293091,1427.183838 
	C457.734436,1444.201660 437.044891,1455.449219 413.201172,1461.048706 
	C400.077606,1464.130615 386.730896,1465.001099 373.494843,1463.822632 
	C348.115784,1461.562622 325.012451,1452.877930 304.577576,1437.201782 
	C287.277527,1423.930542 274.439636,1407.260132 265.367462,1387.667725 
	C259.658173,1375.337769 255.704712,1362.360474 255.038986,1348.650146 
	C254.509399,1337.743530 254.042999,1326.819702 254.041565,1315.903564 
	C253.991364,932.254028 253.954575,548.604553 254.115402,164.955093 
	C254.124710,142.744019 260.477966,121.797684 272.626526,103.124680 
	C278.980988,93.357468 286.003387,83.694756 294.288483,75.582458 
	C311.425354,58.802940 331.941132,47.370316 355.810516,43.100227 
	C365.418488,41.381420 375.255219,40.259628 385.003906,40.136513 
	C414.831757,39.759811 444.667389,39.999615 475.000000,39.999615 
M724.016541,279.420166 
	C732.230896,280.358093 740.545288,280.771423 748.644165,282.315155 
	C829.283142,297.685852 887.821533,364.892334 892.892090,444.749451 
	C893.954163,461.476929 893.121643,478.251984 889.466797,494.742615 
	C880.894165,533.422302 861.643921,565.829895 831.666504,591.649414 
	C798.214050,620.461853 758.993347,634.141479 715.037903,635.075134 
	C707.454529,635.236206 699.738953,635.662109 692.345032,637.210388 
	C641.293457,647.900208 601.424194,697.392029 606.996399,753.639282 
	C609.009644,773.961243 615.749329,792.537109 628.249268,808.598755 
	C678.685669,873.406494 729.385071,938.009460 779.989075,1002.686768 
	C883.762024,1135.319580 987.322815,1268.119507 1091.454224,1400.470215 
	C1118.712891,1435.115845 1155.547852,1449.261230 1198.896118,1440.656128 
	C1254.930298,1429.532349 1293.302368,1377.790283 1285.166016,1318.488647 
	C1282.528076,1299.261475 1275.418945,1282.247437 1263.705444,1267.127075 
	C1238.611450,1234.734619 1213.232666,1202.562622 1187.978271,1170.294434 
	C1098.045776,1055.385010 1008.115295,940.473938 918.189697,825.559021 
	C913.212769,819.199036 908.286011,812.799622 903.063721,806.067627 
	C905.773865,804.479858 907.891235,803.208496 910.036987,801.986938 
	C956.512207,775.527710 996.307983,741.293945 1028.967163,698.953857 
	C1066.218506,650.660461 1091.452759,596.867065 1103.297119,536.775574 
	C1107.277222,516.582642 1110.112549,496.324463 1110.912964,475.870880 
	C1111.555054,459.466827 1110.939697,442.953522 1109.837280,426.558960 
	C1108.842407,411.763000 1107.287231,396.898254 1104.500610,382.346924 
	C1089.217773,302.538177 1052.668457,233.704010 994.979797,176.606979 
	C933.348450,115.607628 859.799927,77.809952 773.378052,65.802940 
	C752.350098,62.881420 731.335388,61.278763 710.158875,61.154331 
	C695.661316,61.069145 681.163269,61.015862 666.665466,61.006702 
	C572.505005,60.947216 478.344482,60.908592 384.183990,60.849205 
	C371.647552,60.841297 359.481934,63.028275 347.676361,67.122444 
	C307.725586,80.977310 274.848480,121.173042 274.878204,172.360046 
	C275.102661,558.839661 274.990265,945.319458 275.081360,1331.799194 
	C275.083069,1339.024658 275.776581,1346.339478 277.016327,1353.461182 
	C286.978302,1410.688477 342.344177,1451.165649 400.998962,1441.753906 
	C453.598389,1433.313843 493.192352,1388.468140 493.181122,1333.231445 
	C493.110291,984.249756 493.145203,635.268066 493.145203,286.286346 
	C493.145203,284.006897 493.145203,281.727448 493.145203,279.145203 
	C499.690063,279.145203 505.649811,279.139435 511.609558,279.146088 
	C582.103088,279.224762 652.596558,279.305298 724.016541,279.420166 
z"/>
<path fill="#E90802" opacity="1.000000" stroke="none" 
	d="
M723.553345,279.402771 
	C652.596558,279.305298 582.103088,279.224762 511.609558,279.146088 
	C505.649811,279.139435 499.690063,279.145203 493.145203,279.145203 
	C493.145203,281.727448 493.145203,284.006897 493.145203,286.286346 
	C493.145203,635.268066 493.110291,984.249756 493.181122,1333.231445 
	C493.192352,1388.468140 453.598389,1433.313843 400.998962,1441.753906 
	C342.344177,1451.165649 286.978302,1410.688477 277.016327,1353.461182 
	C275.776581,1346.339478 275.083069,1339.024658 275.081360,1331.799194 
	C274.990265,945.319458 275.102661,558.839661 274.878204,172.360046 
	C274.848480,121.173042 307.725586,80.977310 347.676361,67.122444 
	C359.481934,63.028275 371.647552,60.841297 384.183990,60.849205 
	C478.344482,60.908592 572.505005,60.947216 666.665466,61.006702 
	C681.163269,61.015862 695.661316,61.069145 710.158875,61.154331 
	C731.335388,61.278763 752.350098,62.881420 773.378052,65.802940 
	C859.799927,77.809952 933.348450,115.607628 994.979797,176.606979 
	C1052.668457,233.704010 1089.217773,302.538177 1104.500610,382.346924 
	C1107.287231,396.898254 1108.842407,411.763000 1109.837280,426.558960 
	C1110.939697,442.953522 1111.555054,459.466827 1110.912964,475.870880 
	C1110.112549,496.324463 1107.277222,516.582642 1103.297119,536.775574 
	C1091.452759,596.867065 1066.218506,650.660461 1028.967163,698.953857 
	C996.307983,741.293945 956.512207,775.527710 910.036987,801.986938 
	C907.891235,803.208496 905.773865,804.479858 903.063721,806.067627 
	C908.286011,812.799622 913.212769,819.199036 918.189697,825.559021 
	C1008.115295,940.473938 1098.045776,1055.385010 1187.978271,1170.294434 
	C1213.232666,1202.562622 1238.611450,1234.734619 1263.705444,1267.127075 
	C1275.418945,1282.247437 1282.528076,1299.261475 1285.166016,1318.488647 
	C1293.302368,1377.790283 1254.930298,1429.532349 1198.896118,1440.656128 
	C1155.547852,1449.261230 1118.712891,1435.115845 1091.454224,1400.470215 
	C987.322815,1268.119507 883.762024,1135.319580 779.989075,1002.686768 
	C729.385071,938.009460 678.685669,873.406494 628.249268,808.598755 
	C615.749329,792.537109 609.009644,773.961243 606.996399,753.639282 
	C601.424194,697.392029 641.293457,647.900208 692.345032,637.210388 
	C699.738953,635.662109 707.454529,635.236206 715.037903,635.075134 
	C758.993347,634.141479 798.214050,620.461853 831.666504,591.649414 
	C861.643921,565.829895 880.894165,533.422302 889.466797,494.742615 
	C893.121643,478.251984 893.954163,461.476929 892.892090,444.749451 
	C887.821533,364.892334 829.283142,297.685852 748.644165,282.315155 
	C740.545288,280.771423 732.230896,280.358093 723.553345,279.402771 
z"/>
</svg>