<svg version="1.1" id="Layer_1" xmlns="http://www.w3.org/2000/svg" xmlns:xlink="http://www.w3.org/1999/xlink" x="0px" y="0px" width="100%" viewBox="0 0 1500 1500" enable-background="new 0 0 1500 1500" xml:space="preserve">

<path fill="#E90802" opacity="1.000000" stroke="none" d="
M583.227295,1101.514404 
	C582.694763,1089.852417 582.538696,1078.588379 581.959656,1067.346313 
	C580.793823,1044.711548 579.279297,1022.129395 571.039978,1000.616211 
	C565.245422,985.486328 557.557434,971.402283 546.723328,959.415527 
	C533.059998,944.298645 518.699036,929.810547 504.587555,915.100647 
	C479.987091,889.457214 458.129883,861.803589 441.020935,830.490662 
	C426.927307,804.696350 416.344055,777.530518 409.249908,749.122620 
	C405.721161,734.992065 403.404480,720.400330 402.225372,705.880371 
	C400.633514,686.277588 399.428619,666.488159 400.297791,646.878113 
	C401.522003,619.258545 406.908081,592.127197 415.059326,565.619080 
	C422.209381,542.366943 431.948486,520.195007 443.670074,498.957245 
	C453.468567,481.203766 464.469299,464.137146 477.805176,448.755524 
	C486.541565,438.678925 494.877380,428.083191 504.703094,419.163635 
	C519.082886,406.110016 534.090759,393.588776 549.859436,382.274078 
	C563.071960,372.793549 577.329651,364.512817 591.883301,357.213654 
	C618.794495,343.716736 647.176819,333.890289 676.774414,328.123138 
	C690.652283,325.419006 704.733398,323.522003 718.808716,322.134979 
	C732.092224,320.825958 745.522339,319.735199 758.828125,320.213623 
	C779.863159,320.969940 800.778625,323.254822 821.497864,327.642731 
	C853.371887,334.393036 883.450745,345.741241 912.047424,361.082977 
	C929.491150,370.441284 946.169861,381.107849 961.353760,393.901520 
	C971.646179,402.573730 982.245239,410.986725 991.713501,420.504181 
	C1002.125305,430.970123 1011.828430,442.224091 1021.072327,453.750580 
	C1037.232544,473.901459 1050.778564,495.821869 1061.950562,519.106750 
	C1074.770996,545.827454 1084.773438,573.605896 1089.906250,602.866638 
	C1092.606445,618.260010 1094.486206,633.838928 1095.850098,649.411743 
	C1096.932373,661.769409 1097.513550,674.292603 1096.819702,686.658264 
	C1095.469360,710.722656 1091.944336,734.531250 1085.622314,757.883606 
	C1078.496948,784.203491 1068.245361,809.244202 1055.307617,833.187866 
	C1045.645996,851.068237 1034.947998,868.325562 1021.095459,883.327576 
	C1008.285645,897.200378 995.590454,911.237244 981.967468,924.285828 
	C965.574402,939.987793 950.192688,956.407104 937.951904,975.582336 
	C928.457153,990.455933 922.650513,1006.759155 918.922546,1023.973511 
	C914.297485,1045.330322 915.172180,1066.937134 914.942139,1088.527344 
	C914.844604,1097.677856 913.948975,1107.099365 908.491760,1114.632202 
	C902.940918,1122.294312 896.719849,1129.591309 885.299011,1129.143433 
	C870.366577,1128.557983 855.393799,1129.000000 840.000000,1129.000000 
	C840.000000,1126.985107 840.000000,1125.365723 840.000000,1123.746460 
	C840.000000,1105.248047 840.120300,1086.748535 839.957275,1068.251587 
	C839.850647,1056.159546 838.672607,1044.044922 839.146118,1031.986572 
	C839.973145,1010.922668 840.335510,989.786438 845.911316,969.155457 
	C850.614136,951.754395 857.979492,935.796509 868.986206,921.526306 
	C879.906189,907.368469 893.473145,895.973999 906.928650,884.358154 
	C921.174866,872.059753 935.254456,859.448608 948.290527,845.899963 
	C962.855164,830.762634 974.534851,813.290100 984.687378,794.825806 
	C995.557312,775.056885 1004.231873,754.400269 1009.078247,732.384583 
	C1012.144958,718.453613 1014.256592,704.256409 1015.832092,690.071472 
	C1017.016296,679.409607 1017.352966,668.545227 1016.848633,657.828308 
	C1015.960632,638.957275 1013.048035,620.343567 1008.134521,602.009583 
	C1003.011902,582.895142 995.948914,564.580322 986.936279,547.041870 
	C977.872498,529.403809 967.279846,512.676208 954.152039,497.733002 
	C945.978516,488.429199 937.862244,478.977539 928.828064,470.548553 
	C912.617249,455.423462 894.942261,442.096039 875.561584,431.167297 
	C859.488281,422.103516 842.847656,414.279724 825.237000,408.691833 
	C808.040710,403.235443 790.595215,398.769958 772.456848,398.041748 
	C758.709961,397.489838 744.838562,396.109283 731.219604,397.317780 
	C715.114929,398.746918 699.022583,401.740173 683.288330,405.554626 
	C663.961060,410.240051 645.680908,418.145569 628.060913,427.446808 
	C612.238708,435.799042 597.187378,445.331696 583.572266,456.975525 
	C574.574768,464.670441 565.314087,472.160675 557.087646,480.632416 
	C540.465515,497.750122 526.082458,516.672424 514.153320,537.420227 
	C500.936829,560.406921 491.363434,584.867004 485.343903,610.599792 
	C482.611877,622.278931 481.327393,634.349548 480.125214,646.316833 
	C479.168213,655.843567 479.162201,665.480896 479.037720,675.072998 
	C478.817963,692.007874 481.458405,708.675293 485.151611,725.097473 
	C490.807434,750.246399 499.403107,774.494019 512.196777,796.891602 
	C519.160706,809.083130 527.846497,820.341736 536.306885,831.607178 
	C540.749878,837.523193 546.066589,842.889160 551.533691,847.910095 
	C567.660461,862.721069 584.281860,876.996887 600.299011,891.922913 
	C624.278748,914.269165 643.808899,939.724365 651.527405,972.352661 
	C654.027466,982.921265 655.406006,993.921509 655.826660,1004.781311 
	C656.726562,1028.015015 656.677429,1051.285767 656.990906,1074.541626 
	C657.053772,1079.206299 657.000000,1083.872681 657.000000,1088.538208 
	C657.000000,1101.790161 657.000000,1115.042114 657.000000,1129.000000 
	C654.158264,1129.000000 652.406189,1129.000000 650.654175,1129.000000 
	C636.155396,1129.000000 621.652771,1129.175415 607.161072,1128.855103 
	C604.187744,1128.789307 601.011780,1127.285767 598.348633,1125.727905 
	C589.304871,1120.437744 584.413391,1112.354126 583.227295,1101.514404 
z" data-index="1" style="opacity: 1;"></path>
<path fill="#E90802" opacity="1.000000" stroke="none" d="
M681.000000,1108.999634 
	C681.000000,1046.504150 680.923767,984.508240 681.057190,922.512878 
	C681.087952,908.232605 677.693237,895.052490 671.751282,882.086853 
	C663.630066,864.366028 656.549316,846.169250 648.972778,828.197510 
	C642.208313,812.151855 635.353210,796.144470 628.580383,780.102234 
	C621.684326,763.767822 614.873352,747.397461 607.963623,731.068787 
	C601.365662,715.476746 594.676147,699.923462 588.058960,684.339478 
	C586.995972,681.836060 586.101318,679.261169 584.987976,676.350891 
	C693.365173,676.350891 801.551025,676.350891 910.408630,676.350891 
	C907.553711,683.354858 904.825623,690.185242 901.992920,696.971924 
	C893.361023,717.652161 884.680603,738.312134 876.034546,758.986389 
	C868.696472,776.532898 861.378418,794.087891 854.054077,811.640076 
	C848.094666,825.921265 842.116638,840.194763 836.187683,854.488525 
	C829.828369,869.819763 823.467163,885.150696 817.243958,900.537170 
	C816.416138,902.583923 816.051575,904.956543 816.049744,907.178772 
	C815.989441,979.173645 816.000000,1051.168579 816.000000,1123.163574 
	C816.000000,1124.956909 816.000000,1126.750366 816.000000,1128.769043 
	C797.551575,1128.769043 779.486267,1128.769043 761.000000,1128.769043 
	C761.000000,1126.793701 761.000000,1125.005005 761.000000,1123.216309 
	C761.000000,1051.221313 761.261780,979.224548 760.765015,907.233032 
	C760.672791,893.871338 764.172485,881.847412 768.685608,869.820129 
	C777.400574,846.595825 786.556091,823.536560 795.239258,800.300598 
	C802.400940,781.136169 809.157227,761.820007 816.050903,742.555969 
	C816.627136,740.945618 816.881104,739.219910 817.366028,737.211609 
	C770.443359,737.211609 724.148010,737.211609 677.181396,737.211609 
	C680.645874,746.880432 683.938843,756.507751 687.536377,766.019897 
	C695.114807,786.057861 703.095947,805.946411 710.458862,826.062134 
	C718.266479,847.392761 725.404541,868.967712 733.130432,890.329163 
	C736.305542,899.108154 736.367615,907.756531 734.209778,916.651978 
	C733.827026,918.229614 734.006958,919.955139 734.006775,921.612366 
	C733.998840,988.774353 734.000000,1055.936279 734.000000,1123.098267 
	C734.000000,1124.897461 734.000000,1126.696777 734.000000,1128.955811 
	C717.306946,1129.307983 700.937683,1129.623535 684.570557,1130.025757 
	C681.583801,1130.099243 680.918579,1128.604004 680.968445,1125.994873 
	C681.073303,1120.498169 681.000122,1114.998169 681.000000,1108.999634 
z" data-index="2" style="opacity: 1;"></path>
<path fill="#E90802" opacity="1.000000" stroke="none" d="
M903.042664,1182.114014 
	C903.276245,1194.870972 901.624451,1207.266846 893.933899,1217.875000 
	C887.698120,1226.476440 879.459412,1232.439209 868.350708,1232.952271 
	C862.355164,1233.229248 856.334106,1232.898071 850.328247,1233.021118 
	C837.407471,1233.285767 824.490784,1233.815063 811.569275,1233.971313 
	C776.992493,1234.388916 742.414185,1234.682373 707.836121,1234.988770 
	C699.340088,1235.064087 690.841370,1235.099487 682.346375,1234.979736 
	C663.261658,1234.710938 644.140747,1234.902100 625.118713,1233.638794 
	C619.711487,1233.279663 613.999084,1229.303711 609.465576,1225.684814 
	C599.525818,1217.750488 593.471619,1207.319336 592.995850,1194.204224 
	C592.977844,1193.707886 593.004883,1193.197510 592.899414,1192.718384 
	C590.992737,1184.055542 593.365967,1180.795044 602.189209,1180.009277 
	C602.850403,1179.950439 603.521362,1180.000000 604.187744,1180.000122 
	C703.482666,1180.005737 802.777649,1180.011353 902.537354,1180.416504 
	C903.015625,1181.248657 903.029114,1181.681274 903.042664,1182.114014 
z" data-index="3" style="opacity: 1;"></path>
<path fill="#E90802" opacity="1.000000" stroke="none" d="
M803.962158,1323.000000 
	C797.137512,1323.000000 790.805664,1323.080322 784.476501,1322.984985 
	C765.059692,1322.692749 745.644531,1322.283203 726.227478,1322.011841 
	C698.981934,1321.630981 671.727234,1320.823730 644.493164,1321.255737 
	C633.903931,1321.423706 626.297974,1316.978638 619.196167,1310.596313 
	C607.221985,1299.835327 600.262695,1286.387207 598.937866,1270.186890 
	C598.862915,1269.270752 598.326843,1268.392334 597.903992,1267.213745 
	C697.255005,1267.213745 796.326782,1267.213745 896.669006,1267.213745 
	C895.071289,1274.130493 894.224060,1281.031616 891.857117,1287.364746 
	C887.089233,1300.122070 879.861572,1311.343140 866.969788,1317.373047 
	C862.816833,1319.315796 858.049500,1320.493042 853.469910,1320.862061 
	C843.752869,1321.644897 833.972961,1321.627075 824.221863,1322.013672 
	C817.630615,1322.275024 811.044556,1322.666626 803.962158,1323.000000 
z" data-index="4"></path>
<path fill="#E90802" opacity="1.000000" stroke="none" d="
M1094.276489,323.698883 
	C1085.762939,311.296021 1074.611084,302.369324 1062.291382,294.708679 
	C1049.388672,286.685364 1035.137207,282.118317 1020.596924,278.282410 
	C1019.193237,277.912140 1017.685486,277.936157 1015.079346,277.652161 
	C1031.276611,263.920624 1050.541748,261.508820 1069.174805,257.663055 
	C1072.093994,249.632248 1074.579224,241.284149 1078.120361,233.410965 
	C1083.298340,221.898270 1090.789062,212.050049 1100.498535,203.689606 
	C1110.652466,194.946396 1121.990479,188.778046 1134.634888,184.761246 
	C1147.326050,180.729660 1160.274658,178.518372 1173.657349,178.911591 
	C1176.371704,178.991333 1177.698975,179.971848 1177.947998,182.373825 
	C1179.028320,192.788742 1181.076782,203.247711 1180.769531,213.631348 
	C1180.169922,233.888016 1173.615234,252.219391 1160.490234,268.196045 
	C1150.502930,280.353394 1138.252075,289.257172 1124.247070,295.775513 
	C1119.744385,297.871185 1119.595093,300.685059 1120.110107,304.349487 
	C1122.675903,322.599854 1120.939819,340.147339 1111.836792,356.533966 
	C1111.601807,356.956970 1111.207520,357.318085 1110.818726,357.619171 
	C1110.582886,357.801758 1110.214355,357.813049 1109.455444,358.029816 
	C1106.965210,345.593292 1101.864502,334.278870 1094.276489,323.698883 
M1105.002930,242.151138 
	C1108.173340,255.095200 1116.478882,260.313660 1126.298584,260.118927 
	C1135.846802,259.929626 1144.325684,252.769806 1145.859619,241.518036 
	C1146.885742,233.992584 1141.371216,224.046143 1132.538452,221.051056 
	C1117.800537,216.053513 1105.010986,226.783218 1105.002930,242.151138 
z" data-index="5" style="opacity: 1;"></path>
<path fill="#E90802" opacity="1.000000" stroke="none" d="
M690.038696,1391.005249 
	C678.955017,1380.760864 668.337524,1370.484253 662.504150,1355.000000 
	C665.719543,1355.000000 667.325012,1355.031250 668.928894,1354.995117 
	C683.341431,1354.670044 697.754700,1354.371216 712.165649,1353.986572 
	C722.083618,1353.721802 731.999756,1353.021729 741.914062,1353.069458 
	C758.825439,1353.150757 775.733704,1353.762939 792.645447,1353.968872 
	C805.554504,1354.126099 818.466980,1354.000122 831.894714,1354.000122 
	C829.304016,1364.006592 824.243835,1371.385742 818.372253,1377.962036 
	C803.482239,1394.638794 784.709900,1405.250854 762.728027,1408.754639 
	C744.485474,1411.662231 726.275513,1409.484253 709.198120,1401.900391 
	C702.622253,1398.979980 696.647217,1394.706665 690.038696,1391.005249 
z" data-index="6"></path>
<path fill="#E90802" opacity="1.000000" stroke="none" d="
M470.426422,325.913483 
	C472.410431,333.906860 468.985748,341.306641 460.138458,342.125214 
	C456.304657,342.479858 450.844421,341.117462 448.445709,338.447906 
	C436.329742,324.964020 424.965302,310.803955 413.362671,296.859924 
	C400.297241,281.157959 387.268219,265.425720 374.199768,249.726257 
	C371.996613,247.079529 369.679962,244.526993 367.405396,241.940002 
	C363.916595,237.972000 364.167877,229.169571 367.342163,225.024353 
	C372.332428,218.507797 384.051910,220.270279 388.602234,226.055283 
	C394.556366,233.625107 400.773315,240.989212 406.919525,248.406723 
	C416.720917,260.235504 426.514893,272.070862 436.392273,283.836029 
	C444.079132,292.992065 452.003082,301.951019 459.594299,311.184448 
	C463.371399,315.778564 466.638123,320.792297 470.426422,325.913483 
z" data-index="7"></path>
<path fill="#E90802" opacity="1.000000" stroke="none" d="
M296.000305,959.000244 
	C279.436707,968.507874 263.258148,977.986816 247.051941,987.418213 
	C241.029572,990.922974 232.963913,988.631775 229.146988,982.434448 
	C225.931671,977.213989 227.821625,968.539856 233.384094,965.199951 
	C244.879028,958.297729 256.562897,951.710571 268.159729,944.977722 
	C284.372894,935.564758 300.576111,926.134644 316.786499,916.716858 
	C325.729980,911.520996 334.521088,906.032593 343.678650,901.245789 
	C350.404205,897.730164 358.184387,901.802368 360.720245,907.149902 
	C363.877869,913.808472 361.467621,921.108093 354.645081,925.059692 
	C335.200806,936.321594 315.795227,947.650330 296.000305,959.000244 
z" data-index="8"></path>
<path fill="#E90802" opacity="1.000000" stroke="none" d="
M1204.769409,931.267578 
	C1219.885986,940.050415 1234.747192,948.546143 1249.576904,957.096741 
	C1253.916382,959.598877 1257.985840,962.642578 1262.499390,964.752686 
	C1269.119751,967.847778 1270.977173,976.770935 1266.947144,983.267273 
	C1263.388428,989.003906 1254.790405,990.526306 1248.286865,986.729919 
	C1229.177979,975.575378 1210.030762,964.486633 1190.872681,953.416809 
	C1173.820557,943.563965 1156.713989,933.804993 1139.676025,923.927856 
	C1135.364502,921.428406 1133.405029,912.458862 1135.858154,907.454895 
	C1138.536011,901.992737 1145.142578,898.662415 1150.385010,900.957397 
	C1156.853149,903.788940 1163.066284,907.248657 1169.230103,910.720032 
	C1181.046875,917.374939 1192.751099,924.229614 1204.769409,931.267578 
z" data-index="9"></path>
<path fill="#E90802" opacity="1.000000" stroke="none" d="
M768.990845,90.634773 
	C768.999023,133.027618 769.001099,174.979187 768.998779,216.930740 
	C768.998291,225.921967 764.230713,231.008118 755.832336,231.000000 
	C747.732910,230.992172 743.002808,225.878677 743.001892,217.094833 
	C742.997620,176.308594 743.132996,135.521576 742.892883,94.736755 
	C742.842102,86.115738 747.550049,81.677162 752.776794,80.238411 
	C757.747253,78.870209 765.231262,80.380424 768.378662,88.893082 
	C768.543945,89.339943 768.780029,89.760605 768.990845,90.634773 
z" data-index="10"></path>
<path fill="#E90802" opacity="1.000000" stroke="none" d="
M230.638550,601.287842 
	C221.432617,599.686279 212.579773,598.456787 203.782120,596.912720 
	C191.347427,594.730347 178.972076,592.209229 166.535843,590.036255 
	C157.802780,588.510376 153.620636,582.472900 155.062347,573.316589 
	C155.944016,567.717041 165.233994,562.937317 171.426361,564.475647 
	C183.194427,567.399292 195.323547,568.856445 207.287018,571.009827 
	C225.457916,574.280518 243.604797,577.685364 261.782684,580.916077 
	C272.002319,582.732361 282.247742,584.419495 292.511597,585.965454 
	C300.272614,587.134460 305.414368,593.145508 303.967316,601.738770 
	C302.777740,608.803284 295.302094,612.807983 287.563782,611.331177 
	C275.140991,608.960449 262.619019,607.112488 250.148911,604.985168 
	C243.760208,603.895325 237.393143,602.678772 230.638550,601.287842 
z" data-index="11"></path>
<path fill="#E90802" opacity="1.000000" stroke="none" d="
M1233.782227,581.970581 
	C1241.058594,580.631226 1247.879395,579.248901 1254.727295,578.016052 
	C1265.095581,576.149475 1275.488159,574.418579 1285.860107,572.572266 
	C1297.980957,570.414612 1310.089233,568.186035 1322.206665,566.009033 
	C1325.079590,565.492859 1328.009521,565.233704 1330.839966,564.552063 
	C1337.113647,563.041138 1345.192139,567.000610 1346.861450,572.573303 
	C1349.018188,579.773193 1344.828125,588.162354 1337.643921,589.649109 
	C1325.902710,592.078796 1314.039551,593.919739 1302.225952,595.997986 
	C1291.852539,597.822876 1281.475952,599.631287 1271.101318,601.449585 
	C1258.649414,603.631775 1246.201538,605.835510 1233.745361,607.992432 
	C1227.351196,609.099670 1220.899048,609.914368 1214.552490,611.241333 
	C1206.680054,612.887329 1199.284302,608.934204 1198.047974,601.873962 
	C1196.583618,593.512634 1201.353394,587.071167 1209.847656,585.937134 
	C1217.713379,584.886902 1225.511230,583.328857 1233.782227,581.970581 
z" data-index="12"></path>
<path fill="#E90802" opacity="1.000000" stroke="none" d="
M903.334717,1181.992432 
	C903.029114,1181.681274 903.015625,1181.248657 903.000610,1180.491211 
	C903.208374,1180.734619 903.417603,1181.302612 903.334717,1181.992432 
z" data-index="13"></path>

</svg>